<?xml version="1.0" encoding="utf-8"?>
<svg xmlns="http://www.w3.org/2000/svg"
	xmlns:xlink="http://www.w3.org/1999/xlink"
	width="32px" height="26px" viewBox="0 0 32 26">
<path fillRule="evenodd" d="M 15.04 3.6C 15.04 3.6 18.51-0 18.51-0 18.51-0 32 13 32 13 32 13 28.53 16.6 28.53 16.6 28.53 16.6 15.04 3.6 15.04 3.6M 28.53 9.4C 28.53 9.4 32 13 32 13 32 13 18.51 26 18.51 26 18.51 26 15.04 22.4 15.04 22.4 15.04 22.4 28.53 9.4 28.53 9.4M 28.53 16.6C 28.53 16.6 32 13 32 13 32 13 32 13 32 13 32 13 28.53 16.6 28.53 16.6 28.53 16.6 28.53 16.6 28.53 16.6ZM 32 13C 32 13 28.53 9.4 28.53 9.4 28.53 9.4 32 13 32 13 32 13 32 13 32 13 32 13 32 13 32 13Z" fill="rgb(149,149,149)"/><path fillRule="evenodd" d="M-0 15.59C-0 15.59-0 10.59-0 10.59-0 10.59 30.34 10.59 30.34 10.59 30.34 10.59 30.34 15.59 30.34 15.59 30.34 15.59-0 15.59-0 15.59" fill="rgb(149,149,149)"/></svg>