<svg xmlns="http://www.w3.org/2000/svg" width="15" height="20" viewBox="0 0 15 20">
  <defs>
    <style>
      .cls-1 {
        fill: #000;
        fill-rule: evenodd;
      }
    </style>
  </defs>
  <path id="geolocation.svg" class="cls-1" d="M697.5,34a7.44,7.44,0,0,0-7.5,7.362,7.071,7.071,0,0,0,.656,3.005,46.371,46.371,0,0,0,6.528,9.488,0.422,0.422,0,0,0,.632,0,46.425,46.425,0,0,0,6.528-9.488A7.071,7.071,0,0,0,705,41.363,7.442,7.442,0,0,0,697.5,34Zm0,11.187a3.825,3.825,0,1,1,3.895-3.824A3.865,3.865,0,0,1,697.5,45.187Z" transform="translate(-690 -34)"/>
</svg>
