<?xml version="1.0" encoding="utf-8"?>
<svg xmlns="http://www.w3.org/2000/svg"
	xmlns:xlink="http://www.w3.org/1999/xlink"
	width="45px" height="45px" viewBox="0 0 45 45">
<path fillRule="evenodd" d="M 40 40C 40 40 40 5 40 5 40 5 5 5 5 5 5 5 5 40 5 40 5 40 40 40 40 40M 45 45C 45 45 0 45 0 45 0 45 0-0 0-0 0-0 45-0 45-0 45-0 45 45 45 45 45 45 45 45 45 45Z" fill="rgb(51,51,51)"/><path fillRule="evenodd" d="M 27.44 8.21C 27.44 8.21 31 11.72 31 11.72 31 11.72 20.38 22.49 20.38 22.49 20.38 22.49 31 33.27 31 33.27 31 33.27 27.44 36.78 27.44 36.78 27.44 36.78 16.82 26 16.82 26 16.82 26 13.36 22.49 13.36 22.49 13.36 22.49 16.82 18.98 16.82 18.98 16.82 18.98 27.44 8.21 27.44 8.21" fill="rgb(51,51,51)"/></svg>