<?xml version="1.0" encoding="utf-8"?>
<svg xmlns="http://www.w3.org/2000/svg"
	xmlns:xlink="http://www.w3.org/1999/xlink"
	width="45px" height="45px" viewBox="0 0 45 45">
<path fillRule="evenodd" d="M 40 40C 40 40 40 5 40 5 40 5 5 5 5 5 5 5 5 40 5 40 5 40 40 40 40 40M 45 45C 45 45 0 45 0 45 0 45 0-0 0-0 0-0 45-0 45-0 45-0 45 45 45 45 45 45 45 45 45 45Z" fill="rgb(51,51,51)"/><path fillRule="evenodd" d="M 13.71 12.05C 13.71 12.05 17.25 8.52 17.25 8.52 17.25 8.52 31.15 22.49 31.15 22.49 31.15 22.49 27.6 26.02 27.6 26.02 27.6 26.02 13.71 12.05 13.71 12.05M 27.6 18.96C 27.6 18.96 31.15 22.49 31.15 22.49 31.15 22.49 17.25 36.46 17.25 36.46 17.25 36.46 13.71 32.93 13.71 32.93 13.71 32.93 27.6 18.96 27.6 18.96M 27.6 26.02C 27.6 26.02 31.15 22.49 31.15 22.49 31.15 22.49 31.15 22.49 31.15 22.49 31.15 22.49 27.6 26.02 27.6 26.02 27.6 26.02 27.6 26.02 27.6 26.02ZM 31.15 22.49C 31.15 22.49 27.6 18.96 27.6 18.96 27.6 18.96 31.15 22.49 31.15 22.49 31.15 22.49 31.15 22.49 31.15 22.49 31.15 22.49 31.15 22.49 31.15 22.49Z" fill="rgb(51,51,51)"/></svg>